<?xml version="1.0" standalone="no"?>
<!DOCTYPE svg PUBLIC "-//W3C//DTD SVG 20010904//EN"
 "http://www.w3.org/TR/2001/REC-SVG-20010904/DTD/svg10.dtd">
<svg version="1.0" xmlns="http://www.w3.org/2000/svg"
 width="700.000000pt" height="700.000000pt" viewBox="0 0 700.000000 700.000000"
 preserveAspectRatio="xMidYMid meet">
<metadata>
Created by potrace 1.11, written by Peter Selinger 2001-2013
</metadata>
<g transform="translate(0.000000,700.000000) scale(0.100000,-0.100000)"
fill="#000000" stroke="none">
<path d="M2629 6246 c-8 -7 -167 -109 -354 -226 -187 -117 -365 -229 -395
-249 -30 -19 -64 -40 -75 -47 -22 -12 -678 -426 -760 -479 -74 -47 -364 -229
-483 -303 -186 -115 -290 -215 -389 -377 -70 -114 -129 -250 -147 -340 -4 -16
-9 -41 -12 -55 -3 -14 -7 -70 -8 -125 -9 -329 191 -695 484 -887 47 -31 243
-155 435 -275 193 -121 535 -336 760 -478 675 -425 865 -545 970 -610 55 -35
177 -112 272 -171 602 -380 778 -491 802 -504 14 -9 72 -46 129 -83 57 -37
104 -67 106 -67 2 0 69 -41 147 -92 79 -50 166 -100 193 -110 50 -19 175 -28
226 -15 85 20 158 54 255 115 39 25 86 55 105 67 19 12 134 85 255 160 121 76
290 182 375 236 85 54 189 119 230 145 41 25 91 57 110 69 66 44 725 458 745
469 62 34 148 101 190 148 167 184 240 437 180 618 -26 77 -75 119 -318 270
l-209 129 69 44 c37 23 128 81 202 127 73 46 139 93 147 105 39 60 21 132 -44
174 -20 14 -138 88 -262 166 -124 78 -380 240 -570 360 -190 119 -354 222
-365 229 -11 6 -22 13 -25 16 -3 3 -17 12 -31 20 -26 15 -629 395 -872 549
-73 46 -143 90 -157 98 -14 8 -52 32 -85 53 -33 21 -91 58 -128 82 -74 47 -71
45 -214 134 -153 95 -862 543 -918 579 -64 41 -494 310 -541 338 -6 3 -17 0
-25 -7z"/>
</g>
</svg>
